<svg width="500" height="500" viewBox="0 0 500 500" fill="none" xmlns="http://www.w3.org/2000/svg">
<path fill-rule="evenodd" clip-rule="evenodd" d="M56.0543 61H442.946C469.087 61 490 83.1765 490 110.897V388.103C490 415.823 469.087 438 442.946 438H56.0543C29.913 438 9 415.823 9 388.103V110.897C9 83.1765 29.913 61 56.0543 61ZM336.289 240.629L268.322 199.603L200.354 157.468C197.217 156.359 194.08 156.359 190.943 157.468C187.807 159.685 186.761 163.012 186.761 166.338V332.662C186.761 335.988 187.807 339.315 190.943 341.532C194.08 342.641 197.217 342.641 200.354 341.532L268.322 299.397L336.289 258.371C339.426 256.153 340.472 252.826 340.472 249.5C340.472 246.174 339.426 242.847 336.289 240.629ZM50.8261 105.353H103.109V160.794H50.8261V105.353ZM50.8261 182.971H103.109V238.412H50.8261V182.971ZM50.8261 260.588H103.109V316.029H50.8261V260.588ZM50.8261 338.206H103.109V393.647H50.8261V338.206ZM396.937 105.353H449.22V160.794H396.937V105.353ZM396.937 182.971H449.22V238.412H396.937V182.971ZM396.937 260.588H449.22V316.029H396.937V260.588ZM396.937 338.206H449.22V393.647H396.937V338.206Z" fill="black"/>
</svg>
